<?xml version="1.0" encoding="UTF-8"?>
<svg version="1.1" xmlns="http://www.w3.org/2000/svg" width="192" height="192">
<path d="M0 0 C63.36 0 126.72 0 192 0 C192 63.36 192 126.72 192 192 C128.64 192 65.28 192 0 192 C0 128.64 0 65.28 0 0 Z " fill="#101826" transform="translate(0,0)"/>
<path d="M0 0 C63.36 0 126.72 0 192 0 C192 63.36 192 126.72 192 192 C128.64 192 65.28 192 0 192 C0 128.64 0 65.28 0 0 Z M23 28 C19.64624689 33.47585495 16.89565923 38.96116903 16.83937073 45.45603943 C16.8293251 46.36837845 16.81927948 47.28071747 16.80892944 48.22070312 C16.80309845 49.219646 16.79726746 50.21858887 16.79125977 51.24780273 C16.78147598 52.30185806 16.7716922 53.35591339 16.76161194 54.44190979 C16.73163953 57.93912494 16.71026189 61.43630161 16.69140625 64.93359375 C16.68483442 66.12944658 16.6782626 67.32529942 16.67149162 68.55739021 C16.63888274 74.89298443 16.614441 81.22856178 16.5949707 87.56420898 C16.577191 92.79720723 16.54242513 98.02966324 16.49243164 103.26245117 C16.43207192 109.58779898 16.40147213 115.9126458 16.39179802 122.2382679 C16.38326544 124.64269905 16.36450216 127.04711763 16.3350544 129.45138359 C15.8203385 148.96299521 15.8203385 148.96299521 25.22999573 165.43309021 C31.99296382 172.14541495 39.43056318 175.42511923 48.93708801 175.54211426 C49.90982162 175.53401733 50.88255524 175.52592041 51.88476562 175.51757812 C53.45976082 175.52809204 53.45976082 175.52809204 55.0665741 175.53881836 C58.5134073 175.55632352 61.95940945 175.5448016 65.40625 175.53125 C67.81563473 175.53394705 70.2250184 175.53783124 72.63439941 175.54284668 C77.6745036 175.54873163 82.71432349 175.54021074 87.75439453 175.52148438 C94.20036706 175.49869594 100.64567329 175.51182434 107.0916214 175.53577423 C112.06403584 175.55025905 117.03629349 175.54561381 122.00871277 175.53526306 C124.38486308 175.53260322 126.76102782 175.53583927 129.13716125 175.54518127 C132.46356681 175.5553907 135.78890768 175.53978309 139.11523438 175.51757812 C140.08796799 175.52567505 141.0607016 175.53377197 142.06291199 175.54211426 C151.64835242 175.42414803 160.14483818 171.78300223 167 165 C173.27222485 156.46087348 175.30117639 148.97602211 175.2746582 138.53173828 C175.27976913 137.49032684 175.28488007 136.44891541 175.29014587 135.37594604 C175.30402147 131.94067605 175.30308653 128.50560715 175.30078125 125.0703125 C175.30466942 122.6766655 175.30900434 120.2830192 175.31376648 117.88937378 C175.32122442 112.87430586 175.32094055 107.85930833 175.31567383 102.84423828 C175.30988121 96.42622412 175.32680753 90.00849873 175.3500185 83.5905323 C175.36477026 78.64735232 175.36562553 73.70424164 175.36250877 68.76104355 C175.3630213 66.39522607 175.36824616 64.02940464 175.37832069 61.66360855 C175.39069477 58.35123331 175.383887 55.03941747 175.37231445 51.72705078 C175.37995819 50.7553595 175.38760193 49.78366821 175.39547729 48.78253174 C175.31854002 38.78952283 172.10481525 31.14435967 165 24 C159.50692842 20.01564763 154.34572625 16.88915552 147.44784546 16.85282898 C146.04759125 16.84209602 146.04759125 16.84209602 144.61904907 16.83114624 C143.59669159 16.82845734 142.57433411 16.82576843 141.52099609 16.82299805 C140.44261475 16.81642685 139.3642334 16.80985565 138.25317383 16.80308533 C134.67659436 16.78334048 131.10005695 16.77168592 127.5234375 16.76171875 C126.30177509 16.75764322 125.08011269 16.7535677 123.82143021 16.74936867 C117.35312315 16.72850108 110.88483735 16.71420333 104.41650391 16.70483398 C97.74174241 16.69478637 91.06736158 16.65939129 84.39270592 16.61966228 C79.25561919 16.59348798 74.11861192 16.5851413 68.98146439 16.58155251 C66.52155937 16.57668729 64.06165789 16.56507526 61.60181808 16.54651451 C58.15273512 16.52211094 54.70451436 16.52309107 51.25537109 16.5300293 C50.245159 16.51721924 49.2349469 16.50440918 48.19412231 16.49121094 C38.00825003 16.5656293 29.7219137 20.23831315 23 28 Z " fill="#1E2634" transform="translate(0,0)"/>
<path d="M0 0 C7.67095119 4.52633766 11.85179494 12.41025312 16 20 C16.45890625 20.76699219 16.9178125 21.53398438 17.390625 22.32421875 C22.51959831 32.38350795 21.37099515 47.37431098 18.5625 58 C13.69204446 71.21004257 3.3499065 83.81453826 -8.9375 90.625 C-14.63136734 93.19713312 -19.8203041 94.32993455 -26 93 C-30.76580033 90.69490882 -33.01153328 86.75429437 -35 82 C-36.46199352 71.36938048 -35.188321 62.91497585 -29 54 C-25.94138221 50.01735014 -22.64564753 46.25502688 -19.31005859 42.50439453 C-16.8198388 39.64477203 -14.54085869 36.62294392 -12.2421875 33.609375 C-11 32 -11 32 -10 31 C-6.49248912 30.61027657 -4.5998805 30.63084277 -1.5625 32.5 C0.22378608 35.35805773 0.46503352 37.18746998 -0.10546875 40.50390625 C-1.76632217 45.13834004 -4.58458758 49.15779085 -7.28515625 53.2421875 C-9.17601712 55.74182177 -9.17601712 55.74182177 -9 58 C-5.70857763 56.62740684 -4.20580047 55.29739691 -2.375 52.25 C-1.97023437 51.59515625 -1.56546875 50.9403125 -1.1484375 50.265625 C2.75898577 42.5571029 3.77205534 33.48348455 1.08984375 25.18359375 C-0.98686393 20.9166606 -3.59533129 17.12890356 -6.3125 13.25 C-8.24927336 10.4247069 -8.98651798 9.08089213 -9.5625 5.625 C-9 3 -9 3 -7.875 1.125 C-4.90079585 -0.65952249 -3.43683798 -0.64846 0 0 Z " fill="#E58C1E" transform="translate(135,50)"/>
<path d="M0 0 C1.875 1.125 1.875 1.125 3 3 C3.68553227 6.1991506 3.46603623 8.18909696 1.828125 11.0390625 C0.78892688 12.55500614 -0.26669897 14.05978054 -1.3359375 15.5546875 C-6.56770861 23.24268917 -9.82456815 30.65489426 -9 40 C-7.52610694 46.44515947 -3.93169916 52.74749566 0 58 C1.485 58.495 1.485 58.495 3 59 C1.45205488 54.51910623 -0.20576177 50.51864971 -2.625 46.4375 C-4.79687641 42.60866014 -6.08828271 39.50241829 -6 35 C-4.5 32.5 -4.5 32.5 -2 31 C1.25 30.625 1.25 30.625 5 32 C8.0424481 35.05486625 10.45874707 38.52695433 13 42 C14.53297223 43.84060951 16.07469302 45.67396728 17.625 47.5 C26.6728496 58.53587191 30.15769595 66.62527528 29 81 C27.80049763 85.26344866 25.72801021 88.11756338 22.9375 91.5 C17.71401242 94.1673128 12.15046393 93.90013255 6.56640625 92.3046875 C-7.32252486 86.5758043 -17.11150897 74.51025572 -23.328125 61.14453125 C-27.7221132 49.18483802 -28.30797859 34.3606802 -23.5625 22.4375 C-11.40402366 -1.7353949 -11.40402366 -1.7353949 0 0 Z " fill="#1A9CA2" transform="translate(63,50)"/>
<path d="M0 0 C3.71045196 2.68474261 7.01623248 5.46553777 8.60546875 9.8359375 C9.30683289 15.79753267 9.15318205 20.80047347 5.60546875 25.8359375 C1.07002388 30.39282655 -2.50622933 32.93277586 -9.08203125 33.2734375 C-14.11666413 33.2145529 -16.98783292 31.87174272 -20.765625 28.59765625 C-25.20464387 23.79670299 -25.95624068 18.49407444 -25.74609375 12.19921875 C-25.02749408 7.36863207 -22.33394988 4.68370553 -18.83203125 1.5234375 C-13.49300155 -2.17281383 -5.88986536 -2.86326244 0 0 Z " fill="#971A4B" transform="translate(104.39453125,56.1640625)"/>
</svg>
